<svg width="16" height="12" viewBox="0 0 16 12" fill="none" xmlns="http://www.w3.org/2000/svg">
<path d="M13.6 2.16H12.064L11.216 0.88C10.896 0.4 10.336 0.112 9.75997 0.112H6.23997C5.66397 0.112 5.10397 0.4 4.78397 0.88L3.93597 2.16H2.39997C1.42397 2.16 0.639969 2.944 0.639969 3.92V10.128C0.639969 11.104 1.42397 11.888 2.39997 11.888H13.6C14.576 11.888 15.36 11.104 15.36 10.128V3.92C15.36 2.944 14.576 2.16 13.6 2.16ZM7.99997 10.448C5.80797 10.448 4.03197 8.672 4.03197 6.48C4.03197 4.288 5.80797 2.528 7.99997 2.528C10.192 2.528 11.968 4.304 11.968 6.496C11.968 8.672 10.192 10.448 7.99997 10.448ZM13.376 4.64C13.36 4.64 13.344 4.64 13.312 4.64H12.672C12.384 4.624 12.16 4.384 12.176 4.096C12.192 3.824 12.4 3.616 12.672 3.6H13.312C13.6 3.584 13.84 3.808 13.856 4.096C13.872 4.384 13.664 4.624 13.376 4.64Z" fill="black"/>
<path d="M8.00002 4.28802C6.78402 4.28802 5.79202 5.28002 5.79202 6.49602C5.79202 7.71202 6.78402 8.68802 8.00002 8.68802C9.21602 8.68802 10.208 7.69602 10.208 6.48002C10.208 5.26402 9.21602 4.28802 8.00002 4.28802Z" fill="black"/>
</svg>
